<?xml version="1.0" encoding="UTF-8" standalone="no"?>
<!-- Created with Inkscape (http://www.inkscape.org/) -->

<svg
   xmlns:dc="http://purl.org/dc/elements/1.1/"
   xmlns:cc="http://creativecommons.org/ns#"
   xmlns:rdf="http://www.w3.org/1999/02/22-rdf-syntax-ns#"
   xmlns:svg="http://www.w3.org/2000/svg"
   xmlns="http://www.w3.org/2000/svg"
   xmlns:sodipodi="http://sodipodi.sourceforge.net/DTD/sodipodi-0.dtd"
   xmlns:inkscape="http://www.inkscape.org/namespaces/inkscape"
   width="275.8746mm"
   height="244.30696mm"
   viewBox="0 0 275.87461 244.30697"
   version="1.1"
   id="svg3751"
   inkscape:version="0.92.3 (2405546, 2018-03-11)"
   sodipodi:docname="schema2.svg">
  <defs
     id="defs3745" />
  <sodipodi:namedview
     id="base"
     pagecolor="#ffffff"
     bordercolor="#666666"
     borderopacity="1.0"
     inkscape:pageopacity="0.0"
     inkscape:pageshadow="2"
     inkscape:zoom="0.7"
     inkscape:cx="683.89771"
     inkscape:cy="419.67569"
     inkscape:document-units="mm"
     inkscape:current-layer="layer1"
     showgrid="false"
     fit-margin-top="0"
     fit-margin-left="0"
     fit-margin-right="0"
     fit-margin-bottom="0"
     inkscape:window-width="1853"
     inkscape:window-height="1025"
     inkscape:window-x="67"
     inkscape:window-y="27"
     inkscape:window-maximized="1" />
  <metadata
     id="metadata3748">
    <rdf:RDF>
      <cc:Work
         rdf:about="">
        <dc:format>image/svg+xml</dc:format>
        <dc:type
           rdf:resource="http://purl.org/dc/dcmitype/StillImage" />
        <dc:title></dc:title>
      </cc:Work>
    </rdf:RDF>
  </metadata>
  <g
     inkscape:label="Layer 1"
     inkscape:groupmode="layer"
     id="layer1"
     transform="translate(264.39581,-140.88845)">
    <path
       style="fill:#000000;stroke-width:0.35277781"
       d="m -203.39451,365.09316 c -3.32245,-1.63972 -2.9355,-7.27034 0.57185,-8.32116 l 1.38654,-0.41543 v -11.38781 -11.38783 l -1.6757,-0.22401 c -0.92163,-0.12321 -2.54881,-0.38879 -3.61597,-0.59018 -1.06715,-0.20139 -2.39545,-0.44856 -2.95177,-0.54927 -2.41591,-0.43733 -8.82508,-4.23617 -11.54228,-6.84134 -0.53328,-0.5113 -1.26059,-1.14871 -1.61625,-1.41648 -0.35565,-0.26777 -0.83758,-0.80194 -1.07095,-1.18704 -0.23337,-0.38511 -1.22556,-2.01208 -2.20486,-3.61549 -0.9793,-1.60343 -1.78055,-3.14585 -1.78055,-3.42762 0,-0.28177 -0.21739,-1.03363 -0.4831,-1.6708 -1.15465,-2.76897 -1.36089,-3.87982 -1.52503,-8.21406 -0.11005,-2.90606 -0.0236,-5.16766 0.236,-6.17361 0.22532,-0.87312 0.49275,-1.98437 0.59429,-2.46944 0.16648,-0.79527 0.59584,-1.83116 2.12019,-5.11528 0.27018,-0.58208 0.80182,-1.53458 1.18141,-2.11667 0.3796,-0.58208 0.81494,-1.33705 0.96743,-1.6777 0.42567,-0.95091 5.38458,-5.90703 5.91036,-5.90703 0.25556,0 0.51757,-0.12993 0.58225,-0.28875 0.21656,-0.53177 8.2096,-4.21584 9.99536,-4.60696 0.97014,-0.21248 2.83023,-0.48925 4.13353,-0.61506 l 2.36965,-0.22873 0.0998,-13.85812 c 0.0549,-7.62197 0.17918,-13.93437 0.27619,-14.02756 0.097,-0.0932 16.05139,-0.2592 35.45417,-0.36893 19.40278,-0.10972 35.30026,-0.20531 35.32773,-0.21241 0.0275,-0.007 0.14948,-0.4095 0.27114,-0.8942 0.12172,-0.485 0.85276,-1.29923 1.62574,-1.81077 l 1.40456,-0.92949 -0.009,-36.73021 -0.009,-36.7302 -1.39843,-0.64471 c -2.33587,-1.07688 -3.10948,-3.57382 -1.95631,-6.31422 0.68119,-1.61876 2.07819,-2.39011 4.32557,-2.38836 2.38264,0.002 3.83919,0.96459 4.35447,2.87818 0.76996,2.85942 -0.28528,5.41821 -2.52801,6.13002 -0.64246,0.20391 -0.66239,1.31745 -0.66146,36.96356 l 0.001,36.75331 1.32197,0.70556 c 0.74708,0.39873 1.53068,1.17916 1.80191,1.79462 l 0.47994,1.08906 22.244214,0.23385 c 12.2342,0.12862 28.32979,0.23386 35.76786,0.23386 h 13.52378 v 14.05516 14.05516 l 1.82749,0.0647 c 1.00513,0.0356 3.0546,0.37798 4.55436,0.76091 3.27389,0.83589 10.07283,4.21153 11.68612,5.80209 2.2546,2.22283 4.01743,4.26023 4.81658,5.56686 0.44499,0.72761 0.9549,1.32292 1.13312,1.32292 0.17819,0 0.32399,0.30813 0.32399,0.68474 0,0.3766 0.16115,0.78433 0.35814,0.90606 0.92597,0.5723 2.36203,5.07368 2.98136,9.34531 0.69505,4.79386 0.0444,10.00354 -1.78438,14.2875 -0.2485,0.58209 -0.54307,1.29646 -0.65458,1.5875 -0.11151,0.29105 -0.51675,1.00542 -0.90054,1.5875 -0.38378,0.58209 -0.80345,1.29646 -0.93264,1.5875 -0.27308,0.61535 -2.09401,2.8848 -3.53818,4.40973 -2.04311,2.15733 -4.61278,4.00164 -7.77829,5.58264 -4.03836,2.01697 -7.24496,2.86521 -11.47519,3.03555 -0.575,0.0231 -0.61736,0.82388 -0.61736,11.66653 v 11.64167 h 1.58192 c 1.22876,0 1.82524,0.21739 2.67176,0.97374 1.01353,0.90561 1.09076,1.14292 1.10374,3.39171 0.012,2.10734 -0.0973,2.52925 -0.85228,3.28421 -1.63967,1.63967 -5.38592,1.73404 -6.94372,0.17493 -0.84286,-0.84356 -1.44219,-2.38118 -1.44068,-3.69605 0,-1.37672 1.19388,-3.43257 2.13308,-3.67818 0.66435,-0.17374 0.68784,-0.57626 0.68784,-11.79147 0,-12.65696 0.10943,-12.00787 -2.02717,-12.02407 -2.95402,-0.0224 -7.00701,-1.13695 -10.27292,-2.82504 -3.96483,-2.04933 -4.93868,-2.69926 -7.14848,-4.77082 -0.89831,-0.84211 -1.87046,-1.72132 -2.16037,-1.95379 -1.11616,-0.89508 -4.01913,-5.94318 -5.31481,-9.24212 -1.48114,-3.7712 -2.07621,-10.32733 -1.29674,-14.2875 0.63292,-3.21569 0.94297,-4.42609 1.31021,-5.11528 0.2068,-0.38805 0.88533,-1.73061 1.50788,-2.98346 0.62255,-1.25284 1.81204,-3.15785 2.64337,-4.23334 1.51257,-1.95687 4.86124,-5.30682 5.30482,-5.30682 0.12954,0 0.65694,-0.29265 1.17196,-0.65033 3.784,-2.628 8.40966,-4.26959 14.60656,-5.18371 l 1.32291,-0.19515 v -12.8604 -12.86041 l -5.37986,0.009 c -2.95892,0.005 -18.71225,-0.0349 -35.00737,-0.0882 l -29.627544,-0.0969 -0.47746,0.99398 c -1.52347,3.17158 -6.90199,3.02856 -8.46668,-0.22514 l -0.46585,-0.96871 -34.25043,0.0443 c -18.83775,0.0243 -34.46343,0.12598 -34.72374,0.22587 -0.38402,0.14736 -0.4733,2.63141 -0.4733,13.16858 v 12.98695 l 2.38125,0.2268 c 3.97111,0.37821 6.51952,1.15753 10.53846,3.22271 2.11048,1.08449 3.89015,2.11403 3.95483,2.28784 0.0647,0.17382 0.28398,0.31604 0.48735,0.31604 0.46577,0 3.39277,3.09394 5.3399,5.64444 1.49378,1.95668 3.17947,5.18814 4.2326,8.11389 0.87732,2.43732 1.2861,7.56928 0.9152,11.4896 -0.3067,3.24182 -1.4897,7.71435 -2.14809,8.12126 -0.16582,0.10249 -0.3015,0.48313 -0.3015,0.84588 0,0.36274 -0.19843,0.87601 -0.44097,1.1406 -0.5194,0.56664 -1.22871,1.6471 -1.57,2.39155 -0.13344,0.29104 -0.41024,0.72712 -0.61512,0.96906 -0.20488,0.24194 -0.92696,1.12089 -1.6046,1.95322 -1.13357,1.39232 -5.32577,5.19161 -5.72852,5.19161 -0.0955,0 -1.32815,0.63462 -2.73924,1.41027 -2.74684,1.50987 -6.70079,2.84631 -8.99738,3.0411 -0.77611,0.0658 -1.92705,0.20965 -2.55764,0.31959 l -1.14653,0.1999 v 11.4052 11.40519 l 1.07281,0.21457 c 0.59005,0.118 1.54255,0.72885 2.11667,1.35744 1.95002,2.13499 1.18663,6.11023 -1.38048,7.18866 -1.5317,0.64346 -3.46413,0.62441 -4.82572,-0.0476 z m 3.84921,-0.99678 c 1.10858,-0.4632 2.34251,-2.28454 2.34251,-3.45768 0,-0.77107 -1.95684,-2.70578 -3.00207,-2.96811 -1.35719,-0.34063 -3.05839,0.583 -3.87843,2.10573 -0.68289,1.26805 -0.68285,1.28812 0.005,2.56498 0.38119,0.70782 1.17135,1.49535 1.75592,1.75008 1.3472,0.58705 1.38408,0.58712 2.77729,0.005 z m 152.598804,-0.78031 c 2.09483,-1.76269 1.15203,-5.24125 -1.53885,-5.67792 -1.69203,-0.27458 -3.09835,0.38193 -3.86412,1.80391 -0.75174,1.39592 -0.54691,2.40725 0.77315,3.81717 1.22347,1.30673 3.11679,1.32997 4.62982,0.0568 z m -154.572234,-41.15545 0.0938,-9.78959 -1.3285,-0.0566 c -0.73067,-0.0311 -2.22795,-0.0708 -3.32728,-0.0882 -1.09933,-0.0174 -2.10741,-0.1401 -2.24018,-0.27271 -0.6378,-0.63702 0.44782,-0.99361 3.02506,-0.99361 1.70911,0 2.80141,-0.14344 2.80141,-0.36788 0,-0.20234 -0.58111,-1.43265 -1.29136,-2.73403 -0.71024,-1.30138 -1.91731,-3.55677 -2.68237,-5.01198 -0.76506,-1.45521 -1.6127,-2.89646 -1.88365,-3.20278 -1.39847,-1.58105 -0.0711,-2.50317 3.4893,-2.42402 1.39945,0.0311 2.72899,0.0399 2.95452,0.0195 0.30311,-0.0274 0.37969,-2.36023 0.29362,-8.94475 -0.064,-4.8992 -0.12951,-9.19848 -0.14547,-9.55395 -0.0643,-1.43091 -7.66688,-0.0564 -11.6707,2.11004 -3.81826,2.066 -3.57454,1.89693 -6.7891,4.70987 -3.24095,2.83604 -7.67479,10.08507 -7.67479,12.54775 0,0.49731 -0.16427,1.21114 -0.36505,1.58629 -0.60795,1.13597 -0.70192,7.24637 -0.13992,9.09812 0.27353,0.90127 0.49905,2.07176 0.50115,2.60109 0.004,1.11697 2.16165,5.92791 3.39389,7.56892 0.4638,0.61764 0.84326,1.27346 0.84326,1.45737 0,0.57078 4.30872,4.85656 6.35,6.31619 1.06716,0.76308 2.9389,1.91688 4.15944,2.564 2.51564,1.3338 8.01515,2.80708 10.12806,2.71323 l 1.41111,-0.0627 z m 7.74424,8.94066 c 2.1884,-0.5693 7.68213,-3.18017 8.21337,-3.90336 0.097,-0.13207 0.74198,-0.62496 1.43326,-1.09531 3.08936,-2.10204 9.15007,-10.57158 9.15007,-12.78676 0,-0.27823 0.2628,-1.12058 0.584,-1.87188 0.88443,-2.06874 0.87562,-10.88586 -0.0136,-13.53683 -0.78571,-2.34257 -3.11044,-7.05555 -3.48022,-7.05555 -0.14587,0 -0.26523,-0.15875 -0.26523,-0.35278 0,-0.19403 -0.24258,-0.63059 -0.53907,-0.97014 -0.29649,-0.33955 -1.3344,-1.56178 -2.30647,-2.71606 -3.82886,-4.54656 -11.01365,-8.12978 -17.1746,-8.56535 l -2.20486,-0.15588 v 9.5551 9.55511 l 2.91042,0.0418 c 1.60073,0.023 3.0339,0.0215 3.18482,-0.003 0.15092,-0.0248 0.3638,0.18792 0.47307,0.47267 0.22289,0.58085 -0.71851,2.65223 -2.94744,6.48533 -0.82731,1.42274 -1.5042,2.69886 -1.5042,2.83583 0,0.13697 -0.3175,0.87179 -0.70556,1.63294 -1.12646,2.2095 -1.04933,2.29306 2.11667,2.29306 2.27346,0 2.82222,0.10289 2.82222,0.52916 0,0.56295 -0.0785,0.57915 -3.35139,0.69129 -1.16416,0.0399 -2.3151,0.0991 -2.55764,0.13159 -0.34062,0.0456 -0.44097,2.26086 -0.44097,9.73459 0,8.91501 0.0485,9.68885 0.61736,9.84507 0.90812,0.2494 3.1033,-0.0404 5.98594,-0.79034 z m 142.621714,-9.02886 v -10.05417 l -3.26319,-0.005 c -1.79476,-0.003 -3.48848,-0.148 -3.76382,-0.32228 -0.41152,-0.26047 -0.26459,-0.77751 0.82557,-2.90501 0.7294,-1.42348 1.47062,-2.73896 1.64715,-2.92328 0.17653,-0.18433 0.32096,-0.56871 0.32096,-0.85417 0,-0.28547 0.2201,-0.76965 0.48909,-1.07597 0.92579,-1.05421 2.70736,-4.7547 2.52187,-5.23811 -0.13127,-0.34206 -0.78151,-0.46833 -2.21573,-0.43024 -3.24905,0.0863 -3.61745,0.032 -3.61745,-0.53304 0,-0.43293 0.60445,-0.52917 3.32352,-0.52917 h 3.32352 l 0.11606,-2.73403 c 0.0638,-1.50371 0.0699,-5.88418 0.0134,-9.73436 l -0.10258,-7.00033 -2.19047,0.24475 c -3.67909,0.41107 -6.35801,1.15853 -8.91777,2.48818 -3.1171,1.61916 -5.44212,3.07939 -5.44293,3.41842 -3.6e-4,0.14552 -0.17988,0.26459 -0.39892,0.26459 -0.46846,0 -4.89339,4.59794 -4.89339,5.08472 0,0.0966 -0.4107,0.77798 -0.9127,1.5142 -3.04483,4.46561 -4.75481,11.29353 -4.05592,16.1953 0.82207,5.76595 1.4969,7.75747 4.05073,11.95439 1.42565,2.34288 1.52072,2.46468 3.56373,4.5655 3.72625,3.83173 8.64087,6.64555 13.58194,7.77623 1.45521,0.333 2.80459,0.65637 2.99861,0.7186 0.19403,0.0622 0.9481,0.12567 1.6757,0.14099 l 1.32302,0.0279 z m 7.56335,8.97918 c 4.04727,-1.06008 8.37417,-3.59403 11.66798,-6.8331 1.7623,-1.73298 4.74003,-5.4705 5.22309,-6.5558 0.12954,-0.29104 0.37204,-0.76729 0.5389,-1.05833 3.64321,-6.355 3.70921,-16.70162 0.14937,-23.41631 -1.98882,-3.75138 -7.48383,-10.09759 -8.74321,-10.09759 -0.28847,0 -0.52448,-0.12817 -0.52448,-0.28483 0,-0.45867 -5.53198,-3.27466 -7.52344,-3.82972 -1.9576,-0.54562 -2.56886,-0.65659 -5.44114,-0.98783 l -1.85208,-0.21359 v 9.71354 9.71355 h 3.175 c 2.58702,0 3.175,0.098 3.175,0.52916 0,0.58431 0.0611,0.5709 -3.175,0.69678 -3.2783,0.12751 -3.42315,0.15035 -2.93251,0.46233 0.2304,0.1465 0.58724,0.66001 0.79294,1.14113 0.20567,0.48112 0.5177,1.11289 0.69339,1.40393 0.17565,0.29104 0.71966,1.32292 1.2089,2.29306 0.48923,0.97013 1.55335,3.06147 2.36474,4.6474 0.81135,1.58593 1.36962,3.05437 1.24054,3.26319 -0.13921,0.22525 -1.51758,0.37968 -3.38882,0.37968 h -3.15418 v 10.09482 10.09482 l 1.99855,-0.24971 c 1.09919,-0.13733 3.1271,-0.5453 4.50646,-0.90658 z M -124.17457,168.84047 c 0.86949,-0.83094 1.05512,-1.2909 1.05512,-2.61448 0,-1.36042 -0.16605,-1.74587 -1.0854,-2.51945 -3.28351,-2.76288 -7.45934,1.63158 -4.78469,5.03519 1.0838,1.37918 3.42487,1.42718 4.81497,0.0987 z m 1.05512,159.9029 c -3.40765,-1.25373 -5.27246,-2.81256 -6.90975,-5.77595 -0.95338,-1.72557 -2.60967,-3.51749 -3.84997,-4.16525 -0.67269,-0.35131 -2.02246,-0.55991 -3.70417,-0.57244 -2.4492,-0.0182 -2.84246,0.0877 -5.29167,1.42517 -2.97154,1.62276 -4.54369,2.51055 -6.35,3.5858 -1.56962,0.93435 -5.37932,3.02963 -7.29954,4.01462 -1.22913,0.63049 -1.5715,0.68151 -2.02847,0.30225 -0.30237,-0.25094 -0.54976,-0.66133 -0.54976,-0.91197 0,-0.48016 2.17458,-1.91748 5.99722,-3.96395 1.26118,-0.67518 2.49814,-1.39124 2.74881,-1.59125 0.50117,-0.39987 2.48329,-1.45782 6.21355,-3.31647 3.97363,-1.97991 8.03272,-2.34494 11.22828,-1.00975 1.76868,0.739 3.88619,2.86456 5.20414,5.22393 2.24235,4.01419 5.66477,5.61047 9.53975,4.4495 0.72935,-0.21852 1.72348,-0.73446 2.20918,-1.14652 0.48569,-0.41208 2.48474,-1.91491 4.44233,-3.33963 3.90978,-2.84551 3.90797,-2.84086 1.93317,-4.97059 -0.4582,-0.49415 -0.8331,-1.23181 -0.8331,-1.63923 0,-0.81061 -0.56552,-0.67677 9.34861,-2.21262 2.522364,-0.39076 4.704974,-0.59436 4.850244,-0.45244 0.24645,0.24072 -1.3824,3.88252 -1.91774,4.28774 -0.13338,0.10097 -0.41317,0.57722 -0.62177,1.05834 -0.20856,0.48112 -0.71031,1.43039 -1.11495,2.10948 -0.640474,1.07486 -1.551404,2.79817 -2.424204,4.58611 -0.51928,1.06377 -1.30211,0.72139 -2.40419,-1.0515 -1.22969,-1.97814 -1.92753,-2.4292 -2.6561,-1.71679 -0.2673,0.26138 -1.39122,1.11024 -2.49758,1.88635 -1.10637,0.77611 -2.59831,1.86346 -3.31542,2.41633 -2.43019,1.87361 -3.96278,2.4562 -6.7719,2.57424 -1.45521,0.0611 -2.88396,0.0236 -3.175,-0.0835 z m -1.15837,-22.90922 c -1.89186,-0.69443 -3.77122,-2.13185 -5.10344,-3.90333 -0.63059,-0.83851 -1.14652,-1.64726 -1.14652,-1.79722 0,-0.14996 -0.71601,-0.93947 -1.59114,-1.75447 -1.21762,-1.13395 -2.04949,-1.57697 -3.5437,-1.88716 -2.61589,-0.54306 -4.37504,-0.20123 -7.74155,1.50429 -1.55223,0.78637 -3.33816,1.67672 -3.96875,1.97855 -0.63059,0.30183 -1.14653,0.67445 -1.14653,0.82806 0,0.1536 -0.19844,0.28025 -0.44097,0.28145 -0.47304,0.002 -0.47496,0.003 -5.61793,2.7556 -3.513,1.88002 -4.52443,2.01938 -4.52443,0.62339 0,-0.82604 -0.27362,-0.65529 8.29027,-5.17364 9.35875,-4.93772 10.45919,-5.33537 14.18316,-5.12514 2.5474,0.1438 4.09851,0.73098 5.89669,2.23221 1.00611,0.83996 2.82236,3.12904 3.58547,4.51887 0.21009,0.38263 1.25325,1.30094 2.31813,2.04066 1.77079,1.2301 2.13708,1.34497 4.28877,1.34497 2.2228,0 3.77713,-0.50392 5.03263,-1.6316 0.21602,-0.19403 1.92549,-1.38043 3.79882,-2.63646 1.87333,-1.25603 3.40606,-2.49587 3.40606,-2.7552 0,-0.25932 -0.55563,-1.19918 -1.23472,-2.08856 -0.6791,-0.88939 -1.23473,-1.7423 -1.23473,-1.89534 0,-0.40878 0.83121,-0.61236 4.94149,-1.21029 2.03586,-0.29617 4.97021,-0.76737 6.520764,-1.04712 1.55056,-0.27974 2.94209,-0.38576 3.09227,-0.23558 0.26871,0.26872 -0.19311,1.3172 -1.49839,3.40189 -0.36449,0.58208 -1.02337,1.7727 -1.46427,2.64583 -0.44087,0.87312 -1.245024,2.24552 -1.787004,3.04977 -0.54198,0.80425 -0.98541,1.69246 -0.98541,1.9738 0,0.28134 -0.29514,0.77861 -0.65585,1.10506 -0.62505,0.56566 -0.72712,0.49781 -2.17331,-1.44463 -0.83459,-1.12099 -1.56403,-2.097 -1.62096,-2.16892 -0.0569,-0.0719 -1.18238,0.64181 -2.501,1.58605 -3.52905,2.52707 -6.48001,4.40687 -7.76602,4.94704 -1.45285,0.61025 -5.87367,0.57374 -7.6079,-0.0628 z"
       id="path3775"
       inkscape:connector-curvature="0"
       sodipodi:nodetypes="ccccccccccccsccccccssccccccscccccccccccccsccsscccccscsscscccccccscsccccccssccccccccsccccccscsccccsccccscsccsccscsccccccccscccscccscccscccccccscsscscccccccsccccsscccccccsccssssscccccccscssccscccccccccscccsscccccscssccccsccccccscssscccccsscccccccsccccccsscccccccccscsscsscccscsccccccccccccccsscccssccssccscscsscscccccssccccscc" />
    <text
       xml:space="preserve"
       style="font-style:normal;font-weight:normal;font-size:21.16666985px;line-height:1.25;font-family:sans-serif;letter-spacing:0px;word-spacing:0px;fill:#000000;fill-opacity:1;stroke:none;stroke-width:0.26458332"
       x="-266.47321"
       y="312.16849"
       id="text3779"><tspan
         sodipodi:role="line"
         id="tspan3777"
         x="-266.47321"
         y="312.16849"
         style="font-size:21.16666985px;stroke-width:0.26458332">LD</tspan></text>
    <text
       xml:space="preserve"
       style="font-style:normal;font-weight:normal;font-size:21.16666985px;line-height:1.25;font-family:sans-serif;letter-spacing:0px;word-spacing:0px;fill:#000000;fill-opacity:1;stroke:none;stroke-width:0.26458332"
       x="-16.343796"
       y="313.08023"
       id="text3779-3"><tspan
         sodipodi:role="line"
         id="tspan3777-6"
         x="-16.343796"
         y="313.08023"
         style="font-size:21.16666985px;stroke-width:0.26458332">PD</tspan></text>
    <text
       xml:space="preserve"
       style="font-style:normal;font-weight:normal;font-size:21.16666985px;line-height:1.25;font-family:sans-serif;letter-spacing:0px;word-spacing:0px;fill:#000000;fill-opacity:1;stroke:none;stroke-width:0.26458332"
       x="-207.59976"
       y="384.51773"
       id="text3779-7"><tspan
         sodipodi:role="line"
         id="tspan3777-5"
         x="-207.59976"
         y="384.51773"
         style="font-size:21.16666985px;stroke-width:0.26458332">1</tspan></text>
    <text
       xml:space="preserve"
       style="font-style:normal;font-weight:normal;font-size:21.16666985px;line-height:1.25;font-family:sans-serif;letter-spacing:0px;word-spacing:0px;fill:#000000;fill-opacity:1;stroke:none;stroke-width:0.26458332"
       x="-56.031292"
       y="384.89569"
       id="text3779-35"><tspan
         sodipodi:role="line"
         id="tspan3777-62"
         x="-56.031292"
         y="384.89569"
         style="font-size:21.16666985px;stroke-width:0.26458332">3</tspan></text>
    <text
       xml:space="preserve"
       style="font-style:normal;font-weight:normal;font-size:21.16666985px;line-height:1.25;font-family:sans-serif;letter-spacing:0px;word-spacing:0px;fill:#000000;fill-opacity:1;stroke:none;stroke-width:0.26458332"
       x="-133.54152"
       y="156.59808"
       id="text3779-7-9"><tspan
         sodipodi:role="line"
         id="tspan3777-5-1"
         x="-133.54152"
         y="156.59808"
         style="font-size:21.16666985px;stroke-width:0.26458332">2</tspan></text>
  </g>
</svg>
